<svg xmlns="http://www.w3.org/2000/svg" width="1280" height="640" viewBox="0 0 1280 640" shape-rendering="crispEdges">
  <!-- 5-color palette -->
  <defs>
    <style>
      .bg { fill:#0B0D1A; }
      .cyan { fill:#2DD4FF; }
      .mag { fill:#F472B6; }
      .yel { fill:#FACC15; }
      .off { fill:#F5F5F4; }
    </style>

    <!-- 8px grid plus sign -->
    <symbol id="plus" viewBox="0 0 24 24">
      <rect class="cyan" x="10" y="0" width="4" height="24"/>
      <rect class="cyan" x="0" y="10" width="24" height="4"/>
    </symbol>

    <!-- Pixel stick figure (24x40 on 8px grid) -->
    <symbol id="stick" viewBox="0 0 64 112">
      <!-- head -->
      <rect class="yel" x="16" y="0" width="32" height="32"/>
      <rect class="bg" x="24" y="8" width="8" height="8"/>
      <rect class="bg" x="40" y="8" width="8" height="8"/>
      <rect class="bg" x="24" y="20" width="24" height="4"/>
      <!-- body -->
      <rect class="yel" x="24" y="32" width="16" height="24"/>
      <!-- arms up -->
      <rect class="yel" x="0" y="32" width="16" height="8"/>
      <rect class="yel" x="48" y="32" width="16" height="8"/>
      <rect class="yel" x="0" y="24" width="8" height="8"/>
      <rect class="yel" x="56" y="24" width="8" height="8"/>
      <!-- legs -->
      <rect class="yel" x="16" y="56" width="8" height="24"/>
      <rect class="yel" x="40" y="56" width="8" height="24"/>
      <rect class="yel" x="8" y="80" width="16" height="8"/>
      <rect class="yel" x="40" y="80" width="16" height="8"/>
      <rect class="yel" x="0" y="88" width="16" height="8"/>
      <rect class="yel" x="48" y="88" width="16" height="8"/>
    </symbol>

    <!-- CRT face (72x64) -->
    <symbol id="crt" viewBox="0 0 96 80">
      <!-- frame -->
      <rect class="cyan" x="0" y="8" width="96" height="64"/>
      <rect class="bg" x="8" y="16" width="80" height="48"/>
      <!-- smile -->
      <rect class="yel" x="24" y="28" width="8" height="8"/>
      <rect class="yel" x="64" y="28" width="8" height="8"/>
      <rect class="yel" x="32" y="48" width="32" height="4"/>
      <rect class="yel" x="28" y="44" width="4" height="4"/>
      <rect class="yel" x="64" y="44" width="4" height="4"/>
      <!-- base -->
      <rect class="cyan" x="16" y="72" width="64" height="8"/>
    </symbol>

    <!-- Terminal window (frame via fills, 224x56) -->
    <symbol id="term" viewBox="0 0 224 56">
      <rect class="cyan" x="0" y="0" width="224" height="56"/>
      <rect class="bg" x="8" y="8" width="208" height="40"/>
    </symbol>

    <!-- 8px bitmap letters for terminals -->
    <symbol id="txt_happy" viewBox="0 0 208 40">
      <!-- “:-HAPPY!” in off-white, simple blocks -->
      <rect class="off" x="0" y="16" width="8" height="8"/><!-- : -->
      <rect class="off" x="12" y="16" width="8" height="8"/><!-- - -->
      <rect class="off" x="28" y="8" width="8" height="24"/><rect class="off" x="36" y="8" width="16" height="8"/><rect class="off" x="36" y="24" width="16" height="8"/><rect class="off" x="52" y="8" width="8" height="24"/><!-- H -->
      <rect class="off" x="68" y="8" width="8" height="24"/><rect class="off" x="76" y="8" width="16" height="8"/><rect class="off" x="92" y="8" width="8" height="24"/><rect class="off" x="76" y="24" width="16" height="8"/><!-- A -->
      <rect class="off" x="108" y="8" width="8" height="24"/><rect class="off" x="116" y="8" width="16" height="8"/><rect class="off" x="132" y="8" width="8" height="24"/><rect class="off" x="116" y="24" width="16" height="8"/><!-- P -->
      <rect class="off" x="148" y="8" width="8" height="24"/><rect class="off" x="156" y="8" width="16" height="8"/><rect class="off" x="172" y="8" width="8" height="24"/><rect class="off" x="156" y="24" width="16" height="8"/><!-- P -->
      <rect class="off" x="188" y="8" width="8" height="24"/><rect class="off" x="196" y="8" width="8" height="8"/><rect class="off" x="196" y="24" width="8" height="8"/><!-- Y! -->
    </symbol>

    <symbol id="txt_party" viewBox="0 0 208 40">
      <!-- “LET’S PARTY!” -->
      <!-- LET'S -->
      <rect class="off" x="0" y="8" width="8" height="24"/><rect class="off" x="8" y="24" width="16" height="8"/><!-- L -->
      <rect class="off" x="28" y="8" width="24" height="8"/><rect class="off" x="28" y="16" width="8" height="16"/><rect class="off" x="44" y="16" width="8" height="16"/><!-- E -->
      <rect class="off" x="60" y="8" width="24" height="8"/><rect class="off" x="68" y="8" width="8" height="24"/><!-- T -->
      <rect class="off" x="92" y="8" width="8" height="24"/><rect class="off" x="100" y="0" width="8" height="8"/><!-- ’ -->
      <rect class="off" x="116" y="8" width="24" height="8"/><rect class="off" x="124" y="16" width="8" height="8"/><rect class="off" x="116" y="24" width="24" height="8"/><!-- S -->
      <!-- space 8px -->
      <!-- PARTY! -->
      <rect class="off" x="152" y="8" width="8" height="24"/><rect class="off" x="160" y="8" width="16" height="8"/><rect class="off" x="176" y="16" width="8" height="16"/><rect class="off" x="160" y="24" width="16" height="8"/>
    </symbol>

    <symbol id="txt_xd" viewBox="0 0 80 40">
      <!-- “XD” -->
      <rect class="off" x="0" y="8" width="8" height="8"/><rect class="off" x="16" y="24" width="8" height="8"/>
      <rect class="off" x="0" y="24" width="8" height="8"/><rect class="off" x="16" y="8" width="8" height="8"/><!-- X -->
      <rect class="off" x="40" y="8" width="8" height="24"/><rect class="off" x="48" y="8" width="16" height="8"/><rect class="off" x="64" y="16" width="8" height="8"/><rect class="off" x="48" y="24" width="16" height="8"/><!-- D -->
    </symbol>
  </defs>

  <!-- Background -->
  <rect class="bg" x="0" y="0" width="1280" height="640"/>

  <!-- Starfield pixel noise (small squares, mapped to palette) -->
  <g>
    <rect class="cyan" x="80" y="96" width="8" height="8"/>
    <rect class="mag" x="200" y="160" width="8" height="8"/>
    <rect class="off" x="360" y="112" width="8" height="8"/>
    <rect class="cyan" x="520" y="84" width="8" height="8"/>
    <rect class="mag" x="760" y="140" width="8" height="8"/>
    <rect class="off" x="940" y="108" width="8" height="8"/>
    <rect class="cyan" x="1160" y="164" width="8" height="8"/>
    <rect class="mag" x="104" y="520" width="8" height="8"/>
    <rect class="off" x="480" y="552" width="8" height="8"/>
    <rect class="cyan" x="1032" y="520" width="8" height="8"/>
  </g>

  <!-- Terminal windows -->
  <g transform="translate(48,48)">
    <use href="#term"/>
    <g transform="translate(8,8)"><use href="#txt_happy"/></g>
  </g>
  <g transform="translate(712,48)">
    <use href="#term"/>
    <g transform="translate(8,8)"><use href="#txt_party"/></g>
  </g>
  <g transform="translate(1040,144) scale(0.9)">
    <use href="#term"/>
    <g transform="translate(8,8)"><use href="#txt_xd"/></g>
  </g>

  <!-- Massive pixelated BOB (each 8px unit, no strokes) -->
  <!-- B (magenta) -->
  <g transform="translate(240,216)">
    <rect class="mag" x="0" y="0" width="40" height="208"/>
    <rect class="mag" x="40" y="0" width="112" height="64"/>
    <rect class="mag" x="40" y="72" width="96" height="56"/>
    <rect class="mag" x="40" y="136" width="112" height="72"/>
    <rect class="bg" x="72" y="24" width="56" height="16"/>
    <rect class="bg" x="72" y="96" width="48" height="16"/>
    <rect class="bg" x="72" y="168" width="56" height="16"/>
  </g>

  <!-- O (cyan) -->
  <g transform="translate(496,216)">
    <rect class="cyan" x="0" y="0" width="192" height="208"/>
    <rect class="bg" x="40" y="40" width="112" height="128"/>
  </g>

  <!-- B (yellow) -->
  <g transform="translate(776,216)">
    <rect class="yel" x="0" y="0" width="40" height="208"/>
    <rect class="yel" x="40" y="0" width="112" height="64"/>
    <rect class="yel" x="40" y="72" width="96" height="56"/>
    <rect class="yel" x="40" y="136" width="112" height="72"/>
    <rect class="bg" x="72" y="24" width="56" height="16"/>
    <rect class="bg" x="72" y="96" width="48" height="16"/>
    <rect class="bg" x="72" y="168" width="56" height="16"/>
  </g>

  <!-- Dancing figures -->
  <g transform="translate(96,408) scale(1.2)"><use href="#stick"/></g>
  <g transform="translate(352,440) scale(1)"><use href="#stick"/></g>
  <!-- square-head dancer -->
  <g transform="translate(592,440) scale(1)">
    <rect class="off" x="0" y="0" width="64" height="64"/>
    <rect class="bg" x="8" y="8" width="48" height="48"/>
    <rect class="yel" x="20" y="20" width="8" height="8"/>
    <rect class="yel" x="36" y="20" width="8" height="8"/>
    <rect class="yel" x="20" y="36" width="24" height="4"/>
    <rect class="yel" x="24" y="44" width="16" height="4"/>
    <!-- limbs -->
    <rect class="yel" x="-24" y="72" width="24" height="8"/>
    <rect class="yel" x="64" y="72" width="24" height="8"/>
    <rect class="yel" x="-16" y="64" width="8" height="16"/>
    <rect class="yel" x="88" y="64" width="8" height="16"/>
    <rect class="yel" x="12" y="64" width="8" height="16"/>
    <rect class="yel" x="44" y="64" width="8" height="16"/>
  </g>
  <g transform="translate(920,440) scale(1)"><use href="#stick"/></g>
  <g transform="translate(1128,416) scale(1.2)"><use href="#stick"/></g>

  <!-- CRT friends -->
  <g transform="translate(1040,304) rotate(8)"><use href="#crt"/></g>
  <g transform="translate(1080,480) rotate(-10)"><use href="#crt"/></g>

  <!-- Scattered plus signs -->
  <use href="#plus" x="176" y="224"/>
  <use href="#plus" x="1120" y="232"/>
  <use href="#plus" x="664" y="392"/>
  <use href="#plus" x="256" y="520"/>
  <use href="#plus" x="864" y="520"/>
</svg>