<svg width="80" height="40" xmlns="http://www.w3.org/2000/svg" viewBox="0 0 80 40">
  <defs>
    <!-- Subtle gradient inspired by newth.ai -->
    <linearGradient id="techGradient" x1="0%" y1="0%" x2="100%" y2="0%">
      <stop offset="0%" style="stop-color:#8b5cf6"/>
      <stop offset="50%" style="stop-color:#3b82f6"/>
      <stop offset="100%" style="stop-color:#8b5cf6"/>
    </linearGradient>
  </defs>

  <!-- Thicker ASCII-style blocks for "BOB" -->
  <g fill="white">
    <!-- B -->
    <rect x="4" y="8" width="4" height="24"/>
    <rect x="4" y="8" width="14" height="4"/>
    <rect x="4" y="18" width="12" height="4"/>
    <rect x="4" y="28" width="14" height="4"/>
    <rect x="14" y="12" width="4" height="6"/>
    <rect x="14" y="22" width="4" height="6"/>

    <!-- O -->
    <rect x="24" y="8" width="14" height="4"/>
    <rect x="24" y="28" width="14" height="4"/>
    <rect x="24" y="12" width="4" height="16"/>
    <rect x="34" y="12" width="4" height="16"/>

    <!-- B -->
    <rect x="44" y="8" width="4" height="24"/>
    <rect x="44" y="8" width="14" height="4"/>
    <rect x="44" y="18" width="12" height="4"/>
    <rect x="44" y="28" width="14" height="4"/>
    <rect x="54" y="12" width="4" height="6"/>
    <rect x="54" y="22" width="4" height="6"/>
  </g>
</svg>