<?xml version="1.0" encoding="UTF-8"?>
<svg id="Layer_1" data-name="Layer 1" xmlns="http://www.w3.org/2000/svg" viewBox="0 0 308.08 136.93" width="80" height="40">
  <defs>
    <style>
      .cls-1 {
        fill: #fff;
      }
    </style>
  </defs>
  <path class="cls-1" d="M0,0v136.93h79.87v-57.05h-11.41v-22.82h11.41V0H0ZM57.05,114.1H22.82v-34.23h34.23v34.23ZM57.05,22.82v34.23H22.82V22.82h34.23Z"/>
  <path class="cls-1" d="M114.1,22.82v114.1h79.87V0h-79.87v22.82ZM171.16,22.82v91.28h-34.23V22.82h34.23Z"/>
  <path class="cls-1" d="M251.03,0h-22.82v136.93h79.87v-57.05h-11.41v-22.82h11.41V0h-57.05ZM285.26,114.1h-34.23v-34.23h34.23v34.23ZM285.26,57.05h-34.23V22.82h34.23v34.23Z"/>
</svg>